<svg xmlns="http://www.w3.org/2000/svg" viewBox="0 0 131.28 149.34"><defs><style>.cls-1{fill:#e57f25;}.cls-2{fill:#e68128;}</style></defs><title>Asset 6</title><g id="Layer_2" data-name="Layer 2"><g id="Layer_1-2" data-name="Layer 1"><path class="cls-1" d="M94,149.34c-2.8-.78-6.67-1.66-10.41-2.94a53.49,53.49,0,0,0-36,.08,45.52,45.52,0,0,1-7.61,2.25c-8.41,1.37-16.16.29-20.43-8.22-4.14-8.24-.63-15.4,5.78-20.17,11.65-8.66,22-17.56,25.35-32.84C52,81,58.16,77.8,65.23,77.67c7.48-.13,13.93,3.11,15.48,10,3.32,14.87,13.2,23.76,24.63,32.17,6.45,4.74,10.33,11.48,6.8,20C109,147.33,102.51,149.25,94,149.34Z"/><path class="cls-2" d="M60.09,40.7c-.22,6.44-1.06,12.64-4.54,18.12-2.81,4.43-6.79,7.28-12.33,6.76-5.77-.54-9.65-3.66-11.84-9.09-4-10-.15-26.42,8.12-33.83,8.75-7.84,15.61-5.92,18.54,5.41C59.1,32.18,59.42,36.48,60.09,40.7Z"/><path class="cls-2" d="M71.23,40.36c.59-3.89,1-7.82,1.82-11.68.86-4.22,1.82-8.94,6.53-10.29,5.33-1.53,9.65,1.56,13.09,5.27,7.73,8.33,10,18.5,8.25,29.4-1.16,7.08-5.44,12.15-13.23,12.5-7.34.33-11.43-4.3-13.91-10.56A39.77,39.77,0,0,1,71.23,40.36Z"/><path class="cls-2" d="M17.68,107.46C7.59,107.51-.13,98.79,0,87.49c.12-9.8,8.66-21.58,15.72-21.67s20.12,15.44,20,23.65C35.56,98.4,26.52,107.42,17.68,107.46Z"/><path class="cls-2" d="M131.28,87.45c.12,11.29-7.6,20-17.65,20-8.83,0-17.88-9-18.05-18-.16-8.18,12.94-23.75,19.94-23.68S131.17,77.72,131.28,87.45Z"/><path class="cls-2" d="M13.52,56.36c-1.28,4.43-5.77,3.8-8.77,5.12-2.67,1.17-3.13-1.85-2.57-3.67,1.1-3.53,1.22-8.8,5.75-9C11.08,48.69,12.21,53.25,13.52,56.36Z"/><path class="cls-2" d="M129.22,58.31c.09,2.3-.76,4.54-3.21,3-2.73-1.72-8.43-.22-7.86-5.52.32-3,2-6.47,5.73-7.28C125.63,48.13,129.29,55.14,129.22,58.31Z"/><path class="cls-2" d="M44.39,11.06C46,5.53,49.79,2.6,54.73,0,56.27,11.4,56.27,11.4,44.39,11.06Z"/><path class="cls-2" d="M76.15.22C81.83,2.44,85,5.67,86.76,10.61,75.3,11.75,75.3,11.75,76.15.22Z"/></g></g></svg>